<svg width="1e3" height="666.67" version="1.1" viewBox="0 0 1e3 666.67" xmlns="http://www.w3.org/2000/svg">
 <defs>
  <linearGradient id="linearGradient30" x2="1" gradientTransform="matrix(1228.2 -917.56 917.56 1228.2 -236.89 883.86)" gradientUnits="userSpaceOnUse">
   <stop stop-color="#0041ff" offset="0"/>
   <stop stop-color="#00ffa6" offset=".99465"/>
   <stop stop-color="#00ffa6" offset="1"/>
  </linearGradient>
  <clipPath id="clipPath88">
   <path d="m99.041 505.32h183.04v-136.89h-183.04z"/>
  </clipPath>
  <clipPath id="clipPath104">
   <path d="m400.31 132.37h181.98v-135.81h-181.98z"/>
  </clipPath>
  <clipPath id="clipPath152">
   <path d="m-2.2727 311.81h219.31v-220.01h-219.31z"/>
  </clipPath>
  <clipPath id="clipPath168">
   <path d="m-2.2727 236.52h161.98v-162.69h-161.98z"/>
  </clipPath>
  <clipPath id="clipPath184">
   <path d="m509.35 505.32h224v-223.29h-224z"/>
  </clipPath>
  <clipPath id="clipPath200">
   <path d="m272.06 155.65h159.79v-159.09h-159.79z"/>
  </clipPath>
  <clipPath id="clipPath216">
   <path d="m612.4 464.19h140.44v-141.14h-140.44z"/>
  </clipPath>
  <clipPath id="clipPath260">
   <path d="m354.86 480.89h116.01v-116.01h-116.01z"/>
  </clipPath>
  <clipPath id="clipPath404">
   <path d="m351.45 142.79h116.01v-116.01h-116.01z"/>
  </clipPath>
 </defs>
 <path d="m0 666.67h1e3v-666.67h-1e3z" fill="url(#linearGradient30)"/>
 <g fill="#fff">
  <path d="m839.87 175.45h-2.5053v-15.892h2.5053z"/>
  <path d="m846.56 166.25h-15.893v2.5053h15.893z"/>
  <path d="m817 198.32h-2.5053v-15.892h2.5053z"/>
  <path d="m823.7 189.12h-15.892v2.504h15.892z"/>
  <path d="m794.14 221.18h-2.5053v-15.892h2.5053z"/>
  <path d="m800.83 211.98h-15.892v2.5053h15.892z"/>
  <path d="m771.27 244.05h-2.5053v-15.892h2.5053z"/>
  <path d="m777.97 234.85h-15.892v2.5053h15.892z"/>
  <path d="m748.41 266.92h-2.5053v-15.892h2.5053z"/>
  <path d="m755.1 257.72h-15.892v2.504h15.892z"/>
  <path d="m273.66 514.58h-2.504v-15.893h2.504z"/>
  <path d="m280.35 505.38h-15.892v2.5053h15.892z"/>
  <path d="m250.79 537.44h-2.5053v-15.893h2.5053z"/>
  <path d="m257.49 528.25h-15.892v2.5053h15.892z"/>
  <path d="m227.93 560.31h-2.5053v-15.892h2.5053z"/>
  <path d="m234.62 551.11h-15.892v2.5053h15.892z"/>
  <path d="m205.06 583.18h-2.5053v-15.892h2.5053z"/>
  <path d="m211.75 573.98h-15.892v2.5053h15.892z"/>
  <path d="m182.19 606.04h-2.5053v-15.892h2.5053z"/>
  <path d="m188.89 596.84h-15.892v2.5053h15.892z"/>
 </g>
 <g transform="matrix(1.3333 0 0 -1.3333 0 666.67)">
  <g clip-path="url(#clipPath88)">
   <g transform="translate(280.67 505.32)">
    <path d="m0 0-126.64-126.64c-5.975-5.975-13.918-9.265-22.368-9.265-8.449 0-16.392 3.29-22.367 9.265s-9.265 13.918-9.265 22.367c0 8.45 3.29 16.393 9.265 22.368l81.909 81.908h-1.414l-81.202-81.201c-12.723-12.723-12.723-33.426 0-46.149 6.362-6.362 14.718-9.543 23.074-9.543 8.357 0 16.713 3.181 23.075 9.543l127.35 127.35z" fill="#fff"/>
   </g>
  </g>
  <g clip-path="url(#clipPath104)">
   <g transform="translate(401.72 -3.4385)">
    <path d="m0 0 125.56 125.56c12.333 12.333 32.401 12.335 44.736 0 12.333-12.333 12.333-32.401 0-44.734l-80.828-80.829h1.414l80.121 80.122c6.163 6.163 9.557 14.357 9.557 23.074s-3.394 16.911-9.557 23.075c-12.724 12.723-33.428 12.721-46.15 0l-126.27-126.27z" fill="#fff"/>
   </g>
  </g>
 </g>
 <g transform="matrix(1.3333 0 0 -1.3333 782.11 478.66)">
  <path d="m0 0c-1.454-1.454-3.811-1.454-5.265 0s-1.454 3.811 0 5.265 3.811 1.454 5.265 0 1.454-3.811 0-5.265" fill="#fff"/>
 </g>
 <g transform="matrix(1.3333 0 0 -1.3333 875.36 385.41)">
  <path d="m0 0c-1.454-1.454-3.812-1.454-5.265 0-1.454 1.454-1.454 3.811 0 5.265 1.453 1.454 3.811 1.454 5.265 0s1.454-3.811 0-5.265" fill="#fff"/>
 </g>
 <g transform="matrix(1.3333 0 0 -1.3333 854.82 415.78)">
  <path d="m0 0c-3.49-3.491-9.15-3.491-12.641 0-3.491 3.49-3.491 9.15 0 12.641s9.151 3.491 12.641 0c3.491-3.491 3.491-9.151 0-12.641z" fill="none" stroke="#fff" stroke-miterlimit="10" stroke-width="1.305"/>
 </g>
 <g transform="matrix(1.3333 0 0 -1.3333 826.52 456.09)">
  <path d="m0 0c-5.977-5.978-15.667-5.978-21.644 0-5.977 5.977-5.977 15.667 0 21.644s15.667 5.977 21.644 0 5.977-15.667 0-21.644" fill="#fff"/>
 </g>
 <g transform="matrix(1.3333 0 0 -1.3333 176.17 250.23)">
  <path d="m0 0c1.454 1.454 3.811 1.454 5.265 0s1.454-3.811 0-5.265-3.811-1.454-5.265 0-1.454 3.811 0 5.265" fill="#fff"/>
 </g>
 <g transform="matrix(1.3333 0 0 -1.3333 82.915 343.49)">
  <path d="m0 0c1.454 1.454 3.811 1.454 5.265 0s1.454-3.811 0-5.265-3.811-1.454-5.265 0-1.454 3.811 0 5.265" fill="#fff"/>
 </g>
 <g transform="matrix(1.3333 0 0 -1.3333 103.45 313.11)">
  <path d="m0 0c3.491 3.491 9.15 3.491 12.641 0s3.491-9.15 0-12.641-9.15-3.491-12.641 0-3.491 9.15 0 12.641z" fill="none" stroke="#fff" stroke-miterlimit="10" stroke-width="1.305"/>
 </g>
 <g transform="matrix(1.3333 0 0 -1.3333 131.75 272.81)">
  <path d="m0 0c5.977 5.977 15.667 5.977 21.644 0s5.977-15.667 0-21.644-15.667-5.977-21.644 0-5.977 15.667 0 21.644" fill="#fff"/>
 </g>
 <g transform="matrix(1.3333 0 0 -1.3333 0 666.67)">
  <g clip-path="url(#clipPath152)">
   <g transform="translate(-2.2729 91.796)">
    <path d="m0 0 219.31 219.31-0.707 0.707-218.6-218.6z" fill="#fff"/>
   </g>
  </g>
  <g clip-path="url(#clipPath168)">
   <g transform="translate(-2.2729 73.836)">
    <path d="m0 0 161.98 161.98-0.707 0.708-161.27-161.27z" fill="#fff"/>
   </g>
  </g>
  <g clip-path="url(#clipPath184)">
   <g transform="translate(731.94 505.32)">
    <path d="m0 0-222.58-222.59 0.707-0.707 223.29 223.29z" fill="#fff"/>
   </g>
  </g>
  <g clip-path="url(#clipPath200)">
   <g transform="translate(273.48 -3.4385)">
    <path d="m0 0 158.38 158.38-0.707 0.707-159.09-159.09z" fill="#fff"/>
   </g>
  </g>
  <g clip-path="url(#clipPath216)">
   <g transform="translate(752.84 464.19)">
    <path d="m0 0-140.44-140.44 0.707-0.707 139.73 139.73z" fill="#fff"/>
   </g>
  </g>
 </g>
 <g transform="matrix(1.3333 0 0 -1.3333 684.72 64.658)">
  <path d="m0 0 58.554-61.453 23.942 81.435z" fill="#00fff0"/>
 </g>
 <g transform="matrix(1.3333 0 0 -1.3333 376.14 558.93)">
  <path d="m0 0 24.575-25.791 10.049 34.178z" fill="#00fff0"/>
 </g>
 <g transform="matrix(1.3333 0 0 -1.3333 465.24 495.21)">
  <path d="m0 0 7.364-7.729 3.011 10.243z" fill="#00fff0"/>
 </g>
 <g transform="matrix(1.3333 0 0 -1.3333 432.02 519.66)">
  <path d="m0 0 11.956-12.548 4.888 16.627z" fill="#00fff0"/>
 </g>
 <g transform="matrix(1.3333 0 0 -1.3333 622.47 171.54)">
  <path d="m0 0 20.699-21.724 8.463 28.787z" fill="#00fff0"/>
 </g>
 <g transform="matrix(1.3333 0 0 -1.3333 697.52 117.86)">
  <path d="m0 0 6.203-6.51 2.536 8.627z" fill="#00fff0"/>
 </g>
 <g transform="matrix(1.3333 0 0 -1.3333 669.53 138.46)">
  <path d="m0 0 10.069-10.568 4.118 14.005z" fill="#00fff0"/>
 </g>
 <g transform="matrix(1.3333 0 0 -1.3333 0 666.67)">
  <g clip-path="url(#clipPath260)" fill="#fff">
   <path d="m359.71 382.98h-1.321v8.379h1.321z"/>
   <path d="m363.24 387.83h-8.379v-1.321h8.379z"/>
   <path d="m369.66 392.93h-1.321v8.379h1.321z"/>
   <path d="m373.19 397.78h-8.379v-1.321h8.379z"/>
   <path d="m379.61 402.87h-1.321v8.379h1.321z"/>
   <path d="m383.14 407.72h-8.379v-1.321h8.379z"/>
   <path d="m389.56 412.82h-1.32v8.379h1.32z"/>
   <path d="m393.09 417.67h-8.379v-1.321h8.379z"/>
   <path d="m399.5 422.77h-1.32v8.379h1.32z"/>
   <path d="m403.03 427.62h-8.38v-1.321h8.38z"/>
   <path d="m409.45 432.72h-1.32v8.379h1.32z"/>
   <path d="m412.98 437.57h-8.379v-1.321h8.379z"/>
   <path d="m419.4 442.66h-1.321v8.379h1.321z"/>
   <path d="m422.93 447.52h-8.38v-1.321h8.38z"/>
   <path d="m429.35 452.61h-1.32v8.379h1.32z"/>
   <path d="m432.88 457.46h-8.379v-1.321h8.379z"/>
   <path d="m439.3 462.56h-1.321v8.379h1.321z"/>
   <path d="m442.82 467.41h-8.38v-1.321h8.38z"/>
   <path d="m449.24 472.51h-1.32v8.379h1.32z"/>
   <path d="m452.77 477.36h-8.379v-1.321h8.379z"/>
   <path d="m368.76 373.93h-1.321v8.379h1.321z"/>
   <path d="m372.29 378.78h-8.379v-1.321h8.379z"/>
   <path d="m378.71 383.88h-1.32v8.379h1.32z"/>
   <path d="m382.24 388.73h-8.379v-1.321h8.379z"/>
   <path d="m388.66 393.82h-1.321v8.379h1.321z"/>
   <path d="m392.19 398.67h-8.38v-1.321h8.38z"/>
   <path d="m398.61 403.77h-1.32v8.379h1.32z"/>
   <path d="m402.14 408.62h-8.379v-1.321h8.379z"/>
   <path d="m408.56 413.72h-1.321v8.379h1.321z"/>
   <path d="m412.08 418.57h-8.38v-1.321h8.38z"/>
   <path d="m418.5 423.67h-1.32v8.379h1.32z"/>
   <path d="m422.03 428.52h-8.379v-1.321h8.379z"/>
   <path d="m428.45 433.62h-1.321v8.379h1.321z"/>
   <path d="m431.98 438.46h-8.38v-1.321h8.38z"/>
   <path d="m438.4 443.56h-1.32v8.379h1.32z"/>
   <path d="m441.93 448.41h-8.379v-1.321h8.379z"/>
   <path d="m448.35 453.51h-1.321v8.379h1.321z"/>
   <path d="m451.88 458.36h-8.379v-1.321h8.379z"/>
   <path d="m458.29 463.46h-1.32v8.379h1.32z"/>
   <path d="m461.82 468.31h-8.379v-1.321h8.379z"/>
   <path d="m377.81 364.88h-1.32v8.379h1.32z"/>
   <path d="m381.34 369.73h-8.379v-1.321h8.379z"/>
   <path d="m387.76 374.83h-1.321v8.379h1.321z"/>
   <path d="m391.29 379.68h-8.38v-1.321h8.38z"/>
   <path d="m397.71 384.77h-1.32v8.379h1.32z"/>
   <path d="m401.24 389.62h-8.379v-1.321h8.379z"/>
   <path d="m407.66 394.72h-1.321v8.379h1.321z"/>
   <path d="m411.19 399.57h-8.38v-1.321h8.38z"/>
   <path d="m417.6 404.67h-1.32v8.379h1.32z"/>
   <path d="m421.14 409.52h-8.379v-1.321h8.379z"/>
   <path d="m427.55 414.62h-1.321v8.379h1.321z"/>
   <path d="m431.08 419.47h-8.38v-1.321h8.38z"/>
   <path d="m437.5 424.56h-1.32v8.379h1.32z"/>
   <path d="m441.03 429.42h-8.379v-1.321h8.379z"/>
   <path d="m447.45 434.51h-1.321v8.379h1.321z"/>
   <path d="m450.98 439.36h-8.38v-1.321h8.38z"/>
   <path d="m457.4 444.46h-1.32v8.379h1.32z"/>
   <path d="m460.93 449.31h-8.379v-1.321h8.379z"/>
   <path d="m467.34 454.41h-1.321v8.379h1.321z"/>
   <path d="m470.87 459.26h-8.38v-1.321h8.38z"/>
  </g>
 </g>
 <g fill="#fff">
  <path d="m479.62 156.03h-1.7613v-11.172h1.7613z"/>
  <path d="m484.32 149.56h-11.172v1.7613h11.172z"/>
  <path d="m544.74 115.04h-1.7613v-11.172h1.7613z"/>
  <path d="m549.45 108.57h-11.173v1.7613h11.173z"/>
  <path d="m609.86 74.053h-1.76v-11.172h1.76z"/>
  <path d="m614.57 67.587h-11.172v1.7613h11.172z"/>
 </g>
 <g transform="matrix(1.3333 0 0 -1.3333 0 666.67)">
  <g clip-path="url(#clipPath404)" fill="#fff">
   <path d="m356.3 44.884h-1.321v8.379h1.321z"/>
   <path d="m359.83 49.733h-8.379v-1.32h8.379z"/>
   <path d="m366.25 54.831h-1.321v8.38h1.321z"/>
   <path d="m369.78 59.682h-8.379v-1.321h8.379z"/>
   <path d="m376.19 64.779h-1.321v8.379h1.321z"/>
   <path d="m379.72 69.629h-8.379v-1.32h8.379z"/>
   <path d="m386.14 74.727h-1.32v8.38h1.32z"/>
   <path d="m389.67 79.577h-8.379v-1.321h8.379z"/>
   <path d="m396.09 84.675h-1.321v8.379h1.321z"/>
   <path d="m399.62 89.524h-8.38v-1.32h8.38z"/>
   <path d="m406.04 94.622h-1.32v8.38h1.32z"/>
   <path d="m409.56 99.473h-8.379v-1.321h8.379z"/>
   <path d="m415.98 104.57h-1.321v8.379h1.321z"/>
   <path d="m419.51 109.42h-8.38v-1.32h8.38z"/>
   <path d="m425.93 114.52h-1.32v8.38h1.32z"/>
   <path d="m429.46 119.37h-8.379v-1.321h8.379z"/>
   <path d="m435.88 124.47h-1.321v8.379h1.321z"/>
   <path d="m439.41 129.32h-8.38v-1.32h8.38z"/>
   <path d="m445.83 134.41h-1.32v8.38h1.32z"/>
   <path d="m449.36 139.26h-8.379v-1.321h8.379z"/>
   <path d="m365.35 35.833h-1.321v8.38h1.321z"/>
   <path d="m368.88 40.684h-8.379v-1.321h8.379z"/>
   <path d="m375.3 45.781h-1.321v8.379h1.321z"/>
   <path d="m378.82 50.631h-8.379v-1.32h8.379z"/>
   <path d="m385.24 55.729h-1.321v8.38h1.321z"/>
   <path d="m388.77 60.579h-8.379v-1.321h8.379z"/>
   <path d="m395.19 65.677h-1.321v8.379h1.321z"/>
   <path d="m398.72 70.526h-8.38v-1.32h8.38z"/>
   <path d="m405.14 75.624h-1.321v8.38h1.321z"/>
   <path d="m408.67 80.475h-8.379v-1.321h8.379z"/>
   <path d="m415.09 85.572h-1.321v8.379h1.321z"/>
   <path d="m418.62 90.422h-8.38v-1.32h8.38z"/>
   <path d="m425.04 95.52h-1.321v8.38h1.321z"/>
   <path d="m428.56 100.37h-8.379v-1.321h8.379z"/>
   <path d="m434.98 105.47h-1.321v8.379h1.321z"/>
   <path d="m438.51 110.32h-8.38v-1.32h8.38z"/>
   <path d="m444.93 115.42h-1.321v8.38h1.321z"/>
   <path d="m448.46 120.27h-8.379v-1.321h8.379z"/>
   <path d="m454.88 125.36h-1.321v8.379h1.321z"/>
   <path d="m458.41 130.21h-8.379v-1.32h8.379z"/>
   <path d="m374.4 26.783h-1.321v8.379h1.321z"/>
   <path d="m377.93 31.633h-8.379v-1.32h8.379z"/>
   <path d="m384.35 36.73h-1.321v8.38h1.321z"/>
   <path d="m387.88 41.581h-8.379v-1.321h8.379z"/>
   <path d="m394.29 46.679h-1.32v8.379h1.32z"/>
   <path d="m397.82 51.528h-8.379v-1.32h8.379z"/>
   <path d="m404.24 56.626h-1.321v8.38h1.321z"/>
   <path d="m407.77 61.477h-8.38v-1.321h8.38z"/>
   <path d="m414.19 66.574h-1.32v8.379h1.32z"/>
   <path d="m417.72 71.424h-8.379v-1.32h8.379z"/>
   <path d="m424.14 76.521h-1.321v8.38h1.321z"/>
   <path d="m427.67 81.372h-8.379v-1.321h8.379z"/>
   <path d="m434.08 86.47h-1.32v8.379h1.32z"/>
   <path d="m437.61 91.319h-8.379v-1.32h8.379z"/>
   <path d="m444.03 96.417h-1.321v8.38h1.321z"/>
   <path d="m447.56 101.27h-8.38v-1.321h8.38z"/>
   <path d="m453.98 106.36h-1.32v8.379h1.32z"/>
   <path d="m457.51 111.22h-8.379v-1.32h8.379z"/>
   <path d="m463.93 116.31h-1.321v8.38h1.321z"/>
   <path d="m467.46 121.16h-8.38v-1.321h8.38z"/>
  </g>
 </g>
 <g fill="#fff">
  <path d="m475.06 606.82h-1.7613v-11.172h1.7613z"/>
  <path d="m479.77 600.36h-11.172v1.76h11.172z"/>
  <path d="m540.19 565.83h-1.7613v-11.173h1.7613z"/>
  <path d="m544.89 559.37h-11.172v1.7613h11.172z"/>
  <path d="m605.31 524.85h-1.76v-11.172h1.76z"/>
  <path d="m610.01 518.38h-11.172v1.76h11.172z"/>
 </g>
 <g transform="matrix(1.3333 0 0 -1.3333 429.06 192.96)">
  <path d="m0 0c0-34.044-27.598-61.642-61.641-61.642-34.044 0-61.641 27.598-61.641 61.642 0 34.043 27.597 61.641 61.641 61.641 34.043 0 61.641-27.598 61.641-61.641z" fill="none" stroke="#fff" stroke-miterlimit="10"/>
 </g>
 <g transform="matrix(1.3333 0 0 -1.3333 954.04 381.9)">
  <path d="m0 0c0-34.043-27.598-61.641-61.642-61.641-34.043 0-61.64 27.598-61.64 61.641 0 34.044 27.597 61.642 61.64 61.642 34.044 0 61.642-27.598 61.642-61.642z" fill="none" stroke="#fff" stroke-miterlimit="10"/>
 </g>
 <g transform="matrix(1.3333 0 0 -1.3333 159.41 538.26)">
  <path d="m0 0c-33.713 0-61.142-27.428-61.142-61.142 0-33.712 27.429-61.14 61.142-61.14s61.141 27.428 61.141 61.14c0 33.714-27.428 61.142-61.141 61.142m0-123.28c-34.265 0-62.142 27.876-62.142 62.14 0 34.265 27.877 62.142 62.142 62.142s62.141-27.877 62.141-62.142c0-34.264-27.876-62.14-62.141-62.14" fill="#fff"/>
 </g>
</svg>
