<svg width="117.26" height="116.9" version="1.1" viewBox="0 0 117.26 116.9" xmlns="http://www.w3.org/2000/svg">
 <path d="m58.628 0.018898a58.61 58.61 0 0 0-58.609 58.609 58.61 58.61 0 0 0 49.137 57.742c-0.04436-18.686 0.26351-36.193 0.35156-42.936-6.6986-0.20572-6.8018-0.34431-15.76-0.44531v-15.293c6.1137 0.09853 6.0506 0.11643 14.871 0.25391 0.47759-38.965 8.8499-36.151 34.891-36.207v14.188c-21.033-0.7622-18.42 5.1412-19.672 21.973 9.1305 0.4571 9.1792 0.47656 17.998 0.47656-1.2958 8.8149-1.0241 8.092-2.1816 15.871l-14.816-0.52539c-0.37326 16.031-0.21527 26.28-0.20508 43.15a58.61 58.61 0 0 0 52.605-58.248 58.61 58.61 0 0 0-58.609-58.609z" fill="#fff" stroke="#fff" stroke-linecap="round" stroke-linejoin="round" stroke-width=".037795" style="paint-order:markers stroke fill"/>
</svg>
